<?xml version="1.0" encoding="UTF-8" standalone="no"?>
<!-- Created with Inkscape (http://www.inkscape.org/) -->

<svg
   version="1.1"
   id="svg1"
   width="484.48001"
   height="393.60001"
   viewBox="0 0 484.48001 393.60001"
   xmlns="http://www.w3.org/2000/svg"
   xmlns:svg="http://www.w3.org/2000/svg">
  <defs
     id="defs1" />
  <g
     id="g1">
    <path
       style="fill:#0b0b0b;stroke:none"
       d="M 250.14248,0.71834199 V 1.358342 l 1.6,0.64 -8.96,8.0000004 c -2.5042,-4.03207 -8.88209,-10.04292941 -14.08,-9.14769541 -4.21581,0.72609401 -8.67571,4.57246141 -12.16,6.90769541 v 0.32 c 8.18332,-2.416562 15.22412,4.0924996 21.76,7.6799996 -2.55832,4.371641 -10.02624,16.014376 -0.32,17.489493 1.25982,0.191445 2.58041,0.109844 3.84,-0.03852 1.66388,-0.195937 3.23664,-0.527539 4.8,-1.130976 l -0.32,-0.96 1.6,-0.32 c -1.92532,-1.056641 -4.22368,-1.772071 -5.32998,-3.847461 -0.94313,-1.769297 -0.39375,-4.25543 0.13699,-6.072539 1.47355,-5.045079 5.23107,-9.265938 9.03299,-12.7391406 1.60488,-1.466133 4.87105,-2.828399 5.89164,-4.729063 2.61213,-4.8646874 -5.71391,-3.27328141 -7.49164,-2.69179741 m -41.92001,-0.639996 -10.37048,10.24000001 -5.67094,6.578008 -7.31858,2.061993 c 1.51809,-3.860274 3.40618,-8.828321 0.99149,-12.7482036 -2.73186,-4.4347264 -12.7285,-0.859414 -15.39149,2.188203 12.41153,1.215196 9.27596,14.8947266 3.84,22.0800006 -2.10863,-5.789375 -5.07252,-11.686172 -8.74566,-16.640001 -1.62525,-2.191914 -3.7341,-4.6521866 -6.61434,-4.9992176 -4.36567,-0.526055 -8.47823,2.5213666 -12.16,4.3592176 v 0.32 c 11.26512,0.260469 9.04531,15.234063 6.08,22.080001 -3.25479,-5.805703 -6.57175,-15.554805 -12.80287,-18.789571 -4.81461,-2.499414 -8.14427,3.617696 -12.15713,4.961719 -2.26495,0.758594 -5.60047,-0.810664 -8,-0.864844 -6.31057,-0.142461 -13.03646,2.543867 -17.17258,7.333946 -2.07244,2.400117 -3.500334,5.475078 -3.855444,8.638751 -0.43446,3.870664 0.65239,5.955039 -1.69198,9.28 3.551564,0.545391 4.898344,3.611483 7.680004,5.439999 -3.65767,3.641797 -7.815414,7.216602 -13.120004,7.975078 -6.674415,0.954336 -14.193345,-5.055586 -13.100185,-12.135078 0.94893,-6.145507 7.90614,-7.64871 11.180185,-12.16 l 1.92,-1.28 h -0.96 l 7.36,-5.12 v -0.32 c -8.91543,3.545273 -17.444515,8.48172 -25.599995,13.494454 -4.33428,2.664063 -9.34435,5.446796 -12.8,9.225546 5.319,0.616387 9.96386,2.182734 14.4,-1.92 -0.45853,6.50166 -0.11397,11.998711 4.16,17.28 -3.89084,0.523926 -6.8161,0.464004 -10.56,-1.025195 -0.89347,-0.355391 -3.0529,-1.037598 -2.88,-2.174805 v -0.32 l -1.28,0.32 8,-6.72 v -0.32 l -9.6,5.341465 -4.16,-1.920645 -8.64,-6.30082 -4.63407,14.4 -1.87622,8.239883 -5.64971,5.200118 4.16,-4.800001 c -5.8681,3.374375 -11.012516,8.517849 -15.999996,13.043198 -4.22785,3.836118 -9.37579,8.143088 -12.16,13.196799 l 2.56,-0.32 c 0.24216,1.67293 5.26951,0.0654 6.4,-0.47851 2.56667,-1.23495 5.92193,-10.939849 9.34815,-4.678521 1.01678,1.85815 -4.23111,5.882771 -5.50815,6.868151 -4.59529,3.54576 -11.13879,4.44769 -16.6399998,2.61185 -7.55464,-2.52109 -6.34669,-9.390621 -0.64,-13.223711 2.2062498,-1.481898 4.8294198,-2.219938 7.3599998,-2.939258 0.41414,1.62432 0.92473,2.390898 2.56,2.879998 l 5.12,-12.159995 c -1.15395,1.9e-5 -0.26632,-1.197129 0,-1.920001 -4.26725,0.0377 -8.40668,1.112188 -12.16,3.146719 -7.8466598,4.253379 -13.51258,14.519897 -10.68367977,23.413278 3.75120997,11.79289 17.91510977,13.79735 26.36080977,6.01879 3.04734,-2.80664 5.30423,-6.29498 7.36287,-9.85879 h 0.32 l 3.519996,6.08 c 2.79283,-0.31717 6.15463,-4.4767 5.50388,-7.36 -1.4208,-6.295171 -8.08673,-10.895919 -8.06388,-17.599996 l 0.64,-1.28 -0.32,1.28 6.56741,0.171835 c 0.73065,0.656793 0.56506,2.436772 0.71556,3.348162 0.52066,3.15315 1.51445,7.160288 5.19703,7.894828 2.74874,0.54826 5.64916,-2.213848 7.31704,-4.054828 1.37971,-1.80418 2.36816,-3.72014 2.92296,-5.759999 -1.44306,0.50125 -2.9289,1.153649 -4.48,1.175309 -2.26216,0.0316 -6.04297,-1.987379 -5.65604,-4.695347 0.15662,-1.096074 1.03457,-2.044003 1.69217,-2.879961 1.62133,-2.061074 4.17935,-6.284882 6.84678,-7.015293 1.61793,-0.443027 3.26557,1.221075 4.47709,2.055372 2.63542,1.814843 7.13225,5.17957 10.55391,3.995683 3.672,-1.270508 4.74657,-5.975527 7.81727,-7.978203 1.60763,-1.048477 3.86524,0.223809 5.62882,0.230215 2.58258,0.0094 5.088665,-0.957129 7.359995,-2.104688 3.64977,-1.843984 6.77613,-4.798281 9.564814,-7.743125 1.50757,-1.591992 2.9378,-3.880859 4.88988,-4.95498 1.69209,-0.931055 4.17412,0.140644 6.02531,0.150761 3.12114,0.01707 5.94558,-0.833496 8.64,-2.402558 4.13104,-2.405664 7.54998,-5.707246 10.62834,-9.323691 0.93462,-1.097969 2.78493,-2.715078 2.17166,-4.269492 l -0.32,-2.24 c -2.68693,1.104844 -4.69543,3.595508 -7.04,5.283594 -5.37796,3.872148 -11.15718,5.430311 -17.6,3.676406 v -0.32 l 18.24,-11.520001 v -0.96 l -1.6,0.64 v -0.32 l 8.64,-4.48 v -0.32 l -31.36,12.800001 c -0.3948,-1.255039 -0.9109,-2.502578 -0.88882,-3.840078 0.1061,-6.426369 8.01805,-8.091447 13.04882,-7.567501 1.79763,0.187226 3.93123,1.033554 5.72435,0.666484 1.72601,-0.353359 2.69771,-2.127383 3.93151,-3.217188 1.79353,-1.584179 4.0658,-1.905976 6.34414,-1.358554 8.32989,2.001445 12.61686,12.190704 16.64,18.836837 h 1.6 c 2.90095,-4.51957 6.04104,-8.914611 8.39182,-13.760001 0.54742,-1.128321 1.44217,-4.765391 2.8998,-4.971524 1.19088,-0.168398 2.1662,1.931289 2.65502,2.731797 1.60846,2.633985 3.01725,8.351329 5.54272,10.084454 1.96906,1.35129 4.15303,-2.126718 5.09916,-3.365196 3.52209,-4.610352 7.73164,-10.360977 9.33148,-15.999531 l 5.76,2.56 c -1.31439,3.112109 -3.41671,7.434883 -2.22394,10.866797 1.94986,5.610235 9.76219,2.632265 13.42394,0.973203 l -0.64,-0.96 1.6,-0.64 v -0.32 c -3.42652,-0.407891 -9.61033,-4.020977 -6.15673,-8.189844 1.93601,-2.336992 7.07552,-3.911875 9.97218,-4.529844 3.07411,-0.65582 4.39301,4.891289 5.63608,6.959531 3.21941,5.356524 6.84726,6.139571 12.30848,3.665704 1.71326,-0.776094 4.04556,-1.313516 4.48,-3.345547 l 3.2,-1.28 v -0.32 c -5.06008,0.671601 -14.26458,-2.60586 -14.08,-8.96 v -0.320001 l -0.64,-0.64 8.64,-1.6 v -0.32 c -2.68233,7.43e-4 -7.73641,1.424883 -10.10997,0.13918 -1.25365,-0.679062 -1.85171,-2.453125 -2.44798,-3.6591796 -1.56959,-3.174687 -2.63623,-6.712031 -4.72206,-9.60000041 m 95.36001,36.48000201 -2.56,7.36 c 2.54429,0.298242 7.75129,1.947109 9.68611,-0.521484 2.55883,-3.264766 3.75676,-8.780353 5.42188,-12.598517 0.48152,-1.10418 1.20914,-3.755157 2.74666,-3.766602 1.53837,-0.01144 4.11968,3.133985 3.48445,4.61707 -1.24777,2.913126 -4.63678,4.351719 -5.20461,7.789533 -1.08793,6.586719 9.07863,7.175195 13.30551,6.08 -1.03324,-1.358242 -2.54934,-2.33168 -3.38492,-3.843008 -1.28625,-2.326406 -0.26102,-6.283517 2.44011,-7.143673 3.55035,-1.130586 8.16848,0.07449 11.82481,0.10668 0,4.490352 -0.7541,12.548087 3.28332,15.626563 1.98469,1.5133 4.57191,0.674394 6.4725,2.008164 4.27582,3.000625 7.90234,6.016621 13.60418,5.085273 -1.04469,-1.808437 -3.07508,-3.306289 -3.4334,-5.44 -1.09758,-6.535663 8.04773,-11.620702 12.7134,-14.079999 -1.03305,9.479102 -6.83246,24.558827 5.44,28.538163 1.90984,0.619278 3.76793,0.814532 5.76,0.901836 -6.46902,-7.628652 3.71609,-15.727773 10.23999,-19.2 -1.2093,6.568731 -5.7001,15.014141 -3.5953,21.752539 1.5427,4.938907 7.285,2.982657 10.4208,5.507325 2.1142,1.702148 2.8458,4.919375 5.0276,6.798789 6.4358,5.543765 16.2973,7.787965 24.6269,7.861345 -3.8353,12.257109 7.2417,21.069219 17.6,25.134359 3.6099,1.4167 12.7198,5.12732 14.9693,-0.19047 0.8424,-1.99151 0.076,-4.46705 -0.6286,-6.38389 -1.8508,-5.03791 -5.6968,-9.200681 -8.8586,-13.440001 -1.2681,-1.70029 -3.1359,-3.765448 -3.2312,-5.999838 -0.2358,-5.526407 6.7539,-1.89526 8.9491,-0.72016 l -2.88,3.84 c 3.1354,2.272088 6.6517,6.634198 10.1928,2.862128 0.6441,-0.68611 1.3454,-1.53564 1.3454,-2.530308 0,-2.22797 -3.6186,-4.44678 -5.1382,-5.71508 -4.1058,-3.426972 -8.9145,-7.136464 -14.08,-8.752382 -2.3381,-0.731445 -5.2976,-0.936035 -7.2127,0.897578 -2.5324,2.424727 -0.3342,5.891835 1.3101,8.118064 3.0296,4.10162 7.0578,7.369198 10.2768,11.309528 1.3008,1.592331 2.9054,3.775061 2.386,5.963871 -0.5427,2.28674 -3.0294,3.56133 -5.1602,3.97332 -4.3194,0.83518 -12.5048,-0.11072 -14.3159,-4.92975 -1.6082,-4.278981 4.0851,-8.998391 7.9159,-7.676971 l 0.32,-0.64 c -2.1808,-3.479278 -7.7202,-7.154548 -11.52,-8.639998 l -2.24,2.56 0.32,-1.6 c -8.5204,-2.587709 -18.7892,-5.133513 -21.44,-15.039998 3.155,-0.443047 6.3917,1.193731 9.28,2.30375 7.0897,2.724668 13.6225,6.645665 20.48,9.856249 v -0.32 c -9.467,-6.575311 -18.612,-13.958143 -29.12,-18.879999 0.6422,-1.134707 1.3165,-2.198379 2.2849,-3.090215 5.5123,-5.076933 11.1577,0.682657 13.9127,5.650215 0.8546,1.540879 1.3491,3.590137 2.6061,4.856602 1.7405,1.753516 4.823,1.665703 7.1148,1.949883 0.7655,0.09492 2.0952,0.383086 2.6069,-0.412227 0.6129,-0.952441 -0.2482,-2.619453 -0.6287,-3.514258 -1.2903,-3.033886 -3.1636,-5.675156 -5.5029,-7.987695 -7.0957,-7.014434 -21.5609,-10.552696 -27.8338,-0.332305 l -3.0515,-2.32332 0.803,-5.99668 1.6085,-10.239999 c -8.4148,0.845352 -15.4892,3.21332 -23.35999,6.079999 l 1.92,-17.28 c -10.74973,0.09477 -22.90227,5.976837 -30.4,13.440001 -0.80488,-1.986289 -4.15188,-7.431328 -1.97824,-9.33711 1.85195,-1.623712 6.56386,0.350079 8.69824,0.69711 v -0.32 c -2.61395,-0.711485 -7.85703,-1.827189 -9.56391,-4.034923 -0.9518,-1.231094 -0.67582,-3.148711 -0.67609,-4.605078 -6.3e-4,-3.496641 -0.37918,-6.785313 -0.64,-10.24 l -14.4,5.407656 -7.04,3.497461 -8.64,-1.225117 v -0.32 l 6.4,0.32 v -0.32 c -11.68465,-1.913868 -22.89758,-5.41711 -34.88,-5.44 1.78707,2.644218 4.71015,6.081406 8,6.783672 1.72209,0.367617 4.91779,-1.158594 6.24086,0.232187 1.20181,1.26332 0.87836,4.320078 -0.87702,4.927969 -1.55294,0.537812 -3.80021,-0.02961 -5.36384,-0.339453 -7.70133,-1.526016 -20.10532,-14.902813 -9.27862,-20.933243 3.45463,-1.9242186 8.96041,-0.136562 11.28715,2.953086 1.08395,1.439336 -1.5522,3.957735 1.19147,3.815782 l -0.32,0.96 c 2.18496,-0.576915 4.2183,-1.575157 6.4,-2.13961 2.32558,-0.60168 4.92853,-0.574062 6.72,-2.340391 -3.14508,-3.144257 -6.33926,-6.1809756 -10.56,-7.8189836 -6.91535,-2.683711 -16.61215,-1.170625 -21.53272,4.6414056 -7.88359,9.311836 -2.54627,22.576094 8.73272,25.539377 3.9665,1.042109 8.1649,0.716093 12.16,0.0382 M 203.10247,7.4383424 l 2.88,7.3599996 -7.68,0.96 3.52,-6.3999996 h -0.32 l 1.6,-1.92 M 341.34248,22.478343 v 8.32 l -7.68,-2.24 3.52,-3.84 4.16,-2.24 m -15.14668,3.626679 0.21336,0.106641 -0.21336,-0.106641 m -199.57333,7.573321 v 0 m 233.92001,3.840001 0.32,0.32 -0.32,-0.32 M 153.18247,124.55834 c 1.68081,5.19287 3.9135,10.73781 3.0627,16.32001 -1.02523,6.72668 -7.0143,11.52217 -8.80495,17.92 -2.38539,8.52278 1.6025,21.68063 9.9819,25.49662 3.45963,1.57553 7.19578,0.94672 10.80035,0.42262 2.00733,-0.29186 14.62308,-1.07251 15.24971,-0.9484 0.92776,0.5697 4.60494,3.63043 5.66627,5.43217 l 5.96402,9.91699 c 3.51543,-0.002 5.69038,-1.62578 8.64,-3.32593 0.79182,-0.45639 2.42237,-0.64344 2.56,-1.47407 2.94819,2.16112 3.18926,6.75176 6.4,8.80741 2.67598,1.71326 4.61719,-3.84668 7.68001,-3.34075 3.67726,0.60743 5.82777,10.34901 10.54074,6.00446 1.0039,-0.92543 1.63306,-2.16842 2.59851,-3.13186 0.83776,-0.83601 3.02315,-1.51711 3.18075,-2.57926 1.59919,0.95952 3.59753,3.09428 5.12,4.16 0.59279,0.41496 0.50558,1.32481 1.6,0.96 2.38679,-0.7956 3.53849,-4.27283 6.08,-5.12 1.57128,-0.52377 5.09455,-0.21816 4.8,0.96 5.43537,-0.24531 4.58255,-6.75738 6.40947,-10.56 1.51195,-3.14701 4.33777,-5.82974 6.7317,-8.32 3.95478,-4.11394 8.35316,-8.80269 14.05883,-10.25715 7.19029,-1.83291 18.74078,1.77481 24.48777,-3.70628 1.77348,-1.69141 2.85352,-4.231 3.62402,-6.51657 l 0.68821,-4.8 h -0.32 c -0.0365,-7.92939 -7.09379,-12.02287 -10.49004,-18.56 l -1.98996,-19.20001 v 11.2 h 0.32 c 0,-5.57318 -0.17944,-11.10906 0.59523,-16.64 0.431,-3.07728 0.52131,-5.51554 3.88477,-6.4 1.95207,6.39692 0.31816,12.1053 0.3225,18.56 0.002,2.56106 0.74689,5.74604 3.46394,6.81533 2.59055,1.01952 2.31938,-5.50115 2.28459,-6.80923 -0.0542,-2.0368 -0.95957,-3.93286 -0.90822,-5.97661 l 1.55719,-18.34949 c -2.81168,-11.682219 -3.56403,-26.70277 -11.97377,-36.144801 -1.9516,-2.191153 -4.67944,-2.865997 -6.86496,-4.688028 -3.11446,-2.596465 -5.17473,-6.048691 -8.68127,-8.304727 -4.20602,-2.706074 -9.4834,-3.444824 -14.08,-5.297362 -15.81625,-6.374336 -34.19938,-9.043203 -51.2,-7.584297 -3.89104,0.333906 -7.67165,1.767031 -11.52001,2.399024 -6.2306,1.023203 -12.52482,1.825703 -18.56,3.77125 -12.53226,4.039999 -23.81084,12.139452 -31.81685,22.568944 -7.7404,10.083477 -8.61582,21.167478 -10.47365,33.279997 -1.14698,7.47793 -2.93148,14.89789 -3.84793,22.4 -0.58589,4.79608 -0.83153,11.00188 3.31768,14.35157 1.29888,1.0486 3.27194,2.65356 5.01885,1.77229 5.10884,-2.57727 2.09086,-11.48632 4.8419,-15.48386 m 249.6,-63.359997 c 0.9365,2.57961 1.5878,4.244824 0,6.72 v -6.72 m -354.879999,1.92 0.64,0.64 5.12,3.84 v 0.32 l -6.72,5.12 -0.32,-6.08 0.64,-3.84 h 0.64 m -10.88,18.240001 c -0.2969,0.487301 0.0122,0.276365 -0.64,0.64 l 0.64,-0.64 m -1.28,2.24 v 0 m -17.599996,9.279995 -0.32,0.32 0.32,-0.32 M 256.54248,110.6333 c 2.83062,-0.45271 5.98416,0.55912 8.64,1.44627 7.09941,2.37145 14.7574,6.58653 17.92824,13.75877 1.78357,4.03434 1.33353,7.91268 1.27012,12.16001 -0.12145,8.13291 -3.19204,18.79004 -12.47836,20.34864 -4.68229,0.78585 -7.86397,-1.05797 -11.84,-3.24067 -8.16108,-4.4801 -16.85262,-11.5898 -18.67598,-21.26798 -1.84781,-9.80795 4.82969,-21.55353 15.15598,-23.20504 m -208.000009,1.12504 c 0,6.31063 -1.17988,12.56045 0.32,18.56 3.09428,12.3771 9.06228,22.92456 14.72,34.24001 4.75648,9.51295 11.00118,18.08157 17.6,26.88 20.553929,27.40524 47.242739,51.03205 73.919999,71.04 15.50178,11.62633 32.29887,20.54766 48.64,30.08 3.7812,2.20571 7.90444,4.11223 11.84001,6.08 l 11.2,5.76 c 19.66188,9.83096 3.96819,1.14499 31.36,14.08001 8.37903,3.02981 16.50538,6.78179 24.96,9.6 l 12.8,3.84 c 1.98422,-8.86653 -4.30438,-13.64411 -11.52,-16.65043 -10.29827,-4.29067 -20.80565,-8.16813 -31.04,-12.59293 -33.44141,-14.45836 -66.71368,-31.49829 -95.36001,-54.34083 -6.75062,-5.38294 -13.43439,-10.72386 -19.50696,-16.88972 -3.25815,-3.30823 -6.82724,-7.05264 -8.33304,-11.5261 l 1.6,-0.32 3.52,3.2 8.32,8 18.24,15.04 38.08,26.24 27.84001,14.4 24.32,10.56 41.92,15.9079 c 3.90033,0.39914 9.29845,-1.39215 11.52,-4.70789 0.3361,-0.73078 0.11081,-1.21122 -0.32,-1.6 -7.57563,-1.62403 -15.18776,-5.11633 -22.4,-7.91829 -14.32776,-5.56632 -28.39961,-11.56052 -42.24,-18.25232 -49.77614,-24.06664 -96.39364,-53.38147 -134.68482,-93.8294 -14.373184,-15.18275 -27.757129,-31.39799 -39.612489,-48.64 -4.0157,-5.8403 -8.13026,-11.58854 -11.89224,-17.60001 -1.73791,-2.77711 -3.03665,-6.77021 -5.81046,-8.64 m 148.159999,1.1199 c 12.51297,-2.32607 22.05776,9.43358 22.05635,20.9601 -10e-4,11.93445 -10.24361,25.02857 -22.05635,27.21208 -13.41019,2.47881 -23.58068,-8.44619 -22.66505,-21.77207 0.7957,-11.5805 10.83343,-24.20069 22.66505,-26.40011 m 32.64001,157.60011 c 2.55169,3.27825 8.12951,4.10788 11.84,5.56875 4.02185,1.58348 8.13027,2.93942 12.16,4.50454 1.9841,0.77058 4.5449,2.13185 6.72,1.93828 1.64658,-0.14656 9.85232,-4.86312 22.4,-12.15434 40.96351,-23.80309 82.19086,-47.57547 123.83999,-70.14158 12.8817,-6.97946 25.3268,-14.80364 38.08,-22.02623 3.7417,-2.11907 11.5773,-4.90518 12.0859,-9.76946 0.6618,-6.3291 -6.1088,-19.07148 -13.6859,-17.40539 -4.4319,0.97451 -8.8418,4.79596 -12.8,6.95707 -9.7581,5.32785 -19.3977,10.8694 -29.12,16.26286 -37.40948,20.75304 -74.83652,41.46996 -111.99999,62.66656 -13.10172,7.47271 -26.22344,14.91344 -39.36,22.32199 -6.60657,3.72588 -13.14862,8.37695 -20.16,11.27695 m 2.88,-118.20488 c 8.37421,-1.9326 8.54468,8.10477 9.57285,13.56488 0.54679,2.90379 1.15185,5.66178 0.93129,8.64 -0.22578,3.04867 -1.02045,6.60803 -4.42717,7.41325 -1.80168,0.42584 -3.63758,-0.0742 -5.43697,-0.26084 -3.59165,-0.37266 -8.12,0.37826 -10.4812,-3.05456 -1.42402,-2.07031 -1.39156,-4.89117 -1.35267,-7.29785 0.1134,-7.02 3.34338,-17.19314 11.19387,-19.00488 m 210.23999,23.80488 c -1.3953,-4.39732 -2.9757,-8.29998 -5.5502,-12.16 -0.9312,-1.39607 -3.6247,-3.89511 -3.4616,-5.66271 0.1156,-1.25299 1.9994,-1.93949 2.932,-2.45637 2.6133,-1.44826 5.7663,-4.31531 8.9598,-3.40281 4.8571,1.38785 11.4424,11.21789 8.7467,16.30351 -1.6932,3.19436 -8.3149,6.14955 -11.6267,7.37838 m -8.32,5.12 -9.92,-18.88 c 2.2948,-0.71502 3.2597,0.80494 4.5295,2.54887 2.4037,3.301 4.394,6.79752 5.9567,10.57113 0.9032,2.18096 2.04,4.45293 -0.5662,5.76 m -128.63999,-14.08 -0.32,0.32 0.32,-0.32 m -0.64,0.64 -0.32,0.32 0.32,-0.32 m -3.2,1.6 -0.32,0.32 0.32,-0.32 m 114.55999,22.4 c -1.2041,-2.54845 -2.236,-5.17234 -3.5318,-7.68 -0.8473,-1.63957 -1.8008,-3.23957 -2.7856,-4.8 -0.5468,-0.86634 -1.1186,-1.71779 -1.7017,-2.56 -0.5289,-0.76371 -3.3561,-5.90076 -0.032,-4.09927 3.9139,2.12136 6.9553,9.43175 8.5525,13.37927 0.8786,2.17143 1.9927,4.41114 -0.501,5.76 m -256.9601,-7.68 v 0.32 h -1.28 l 1.28,-0.32 m 25.92,56.32 9.28,3.52 8,5.56 6.72,4.36 c 0.87206,0.0414 1.72122,0.40035 2.56,0.64 l 9.92001,1.99704 c 5.96603,0.99433 11.68279,0.75761 17.6,-0.60297 3.95125,-0.90852 7.73429,-2.46481 11.52,-3.8859 8.56779,-3.21621 19.905,-6.785 24.49334,-15.42817 l 2.38666,-14.4 c 0,-9.13172 -0.77856,-18.60547 1.6,-27.52 -0.56389,-0.73375 -0.99127,-2.11703 -1.83868,-2.54324 -2.41589,-1.2151 -4.7314,2.3524 -5.39687,4.14328 -1.95316,5.25625 -0.21272,13.99364 -5.27313,17.67672 -3.55931,2.59053 -7.77339,-2.67508 -11.00802,0.15152 -2.78221,2.43125 -2.94989,10.45079 -8.1603,9.50711 -3.35896,-0.60836 -3.64644,-5.60586 -7.04437,-6.02996 -4.85717,-0.60625 -3.89996,6.94231 -8.00213,7.05516 -2.42252,0.0666 -3.68609,-3.0827 -6.0765,-3.35584 -2.68506,-0.30682 -4.2093,4.1635 -6.97877,2.4683 -2.75561,-1.6867 -3.41108,-7.29568 -6.51711,-8.13848 -3.25848,-0.88414 -4.33307,6.06446 -7.62377,6.20471 -3.64912,0.15553 -3.58799,-6.43025 -6.73555,-7.54465 -3.05498,-1.0816 -6.08623,2.47766 -9.26354,1.46651 -5.55136,-1.76668 -5.30552,-11.05008 -6.64629,-15.62114 -0.57507,-1.96058 -1.66558,-5.44263 -4.23498,-5.44263 -1.59474,0 -2.71976,1.62992 -3.378,2.88406 -1.69108,3.22199 -2.31184,6.67656 -2.79047,10.23857 -1.32854,9.88717 -1.88295,20.11832 5.58613,27.81547 2.13275,2.19787 4.9201,3.04043 7.30234,4.82453 m 33.60001,14.82668 c 0.24748,0 0.0513,0.1593 -0.10667,0.10664 l 0.10667,-0.10664 m 64.3197,111.25331 c 2.72432,1.21712 5.12824,1.61641 7.68,1.90812 6.35855,0.16402 11.90869,-2.82285 15.22914,-8.32 2.91469,-4.82535 4.14248,-10.97594 5.86097,-16.30812 2.88555,-8.9534 5.98639,-17.65243 10.53165,-25.92 3.018,-5.48958 6.39253,-11.33092 12.21824,-14.08001 1.83957,6.75583 9.67871,10.78571 15.07402,4.66581 2.80781,-3.18493 2.54801,-4.55247 2.64286,-8.52644 -0.29327,-3.16009 -0.9328,-6.73362 -2.31094,-8.6128 -7.62965,-10.4034 -23.26727,-2.84907 -30.06518,4.18863 -4.85766,5.02902 -7.17084,12.44344 -12.5624,16.87125 -1.70407,1.39949 -3.71049,2.46856 -5.73768,3.32047 -0.85961,0.36121 -2.45592,0.68918 -2.76869,1.71867 -0.59059,1.94387 2.4435,5.87875 2.68101,8.13442 0.89766,8.52511 -1.2531,18.53203 -7.07562,24.95003 -0.36713,0.40465 -0.74549,0.82692 -1.17852,1.16336 -3.2383,2.51586 -3.62445,-1.73484 -5.57966,-3.40859 -2.2785,-1.95051 -6.39872,-1.4441 -8.42866,0.62965 -4.98105,5.08859 -3.68822,15.95945 3.78946,17.62555 M 165.66247,286.79833 v 0 m -81.599999,81.60001 c 3.5221,0.90972 6.917495,-0.7468 10.239995,-1.90024 5.49288,-1.90691 11.085234,-3.68863 16.640004,-5.40656 8.83417,-2.73215 18.44242,-5.06574 26.88,-8.84774 30.28709,-16.81892 47.96404,-27.44099 71.36,-40.41386 3.16731,-1.75623 7.29088,-3.19313 8.64001,-6.79161 -6.08319,-2.1548 -12.17272,-5.59367 -17.92001,-8.54078 -2.28345,-1.17093 -6.01482,-3.76695 -8.64,-3.56711 -2.8163,0.21438 -5.94308,2.89059 -8.32,4.27508 -5.72798,3.33641 -11.59933,6.43254 -17.28,9.84977 -13.38366,8.05094 -28.06201,14.59097 -40.95984,23.38137 -6.76021,4.60738 -12.69426,11.07605 -18.88625,16.43507 -5.37914,4.65555 -10.746764,9.32895 -16.073554,14.04403 -2.450255,2.16886 -5.496285,3.96047 -5.680355,7.48258 m 150.720009,-60.16 0.32,0.32 -0.32,-0.32 m 129.24484,14.66922 c -2.0852,-4.34705 -6.78031,-4.24581 -9.495,-3.0238 -2.09269,1.33411 -2.71715,4.18786 -3.77543,6.27442 -1.38097,2.72281 -3.59262,4.84269 -6.53441,5.76016 2.07066,-2.84891 4.90207,-6.53493 4.96,-10.23954 0.07,-4.47449 -6.66481,-5.02558 -9.65137,-3.31441 -1.61711,0.92652 -2.11449,2.74387 -2.97992,4.2741 -1.6218,2.8677 -4.54879,6.59867 -8.00871,7.03985 2.47101,-1.7679 4.87941,-5.18227 5.02433,-8.31985 0.0994,-2.15223 -1.02554,-4.30906 -3.42617,-4.24117 -2.13668,0.0604 -3.79699,2.02641 -4.9623,3.60402 -2.77239,3.75336 -4.79522,7.65957 -6.02633,12.157 -0.54086,1.97585 -0.98401,4.48597 0.41191,6.22523 2.67504,3.33305 10.2193,2.51758 14.09856,2.91211 4.48461,0.45605 8.93695,0.46266 13.44,0.46266 2.19351,0 4.63613,0.28699 6.71984,-0.52954 6.77711,-2.65566 9.90434,-12.12858 10.24407,-18.78733 m -4.16391,19.63687 c 0.4784,5.10289 5.67327,8.54521 9.96931,10.02537 2.0854,0.66433 3.54112,1.21029 6.35069,1.13166 5.47734,-0.15329 10.36863,-3.91285 12.70669,-8.91703 2.7687,-5.92602 2.1926,-15.26137 -1.97927,-20.47407 -4.2068,-5.25636 -13.85574,-6.18 -18.35852,-0.96593 -3.23996,3.75175 -3.75488,11.54101 -0.28,15.31703 1.27864,1.38945 7.82727,3.81988 6.42219,6.10222 -1.96113,3.18563 -8.38375,2.4802 -10.99109,0.72891 -1.37481,-0.92348 -2.29899,-2.29789 -3.84,-2.94816 m -234.88001,-10.24 c 0.55978,6.36449 4.62189,13.38265 9.6,17.28 -1.36099,2.49238 -6.7094,3.18453 -9.28,4.00933 -4.91261,1.57625 -9.81917,3.18231 -14.72,4.79238 -2.11431,0.69461 -4.7829,2.13137 -7.03857,2.03989 -2.49695,-0.10129 -4.616114,-4.12426 -3.656914,-6.34856 1.100564,-2.55211 4.804874,-4.76457 6.855484,-6.54523 2.64802,-2.29942 5.27594,-4.62555 7.95872,-6.88426 3.21682,-2.70828 6.33433,-6.74848 10.28128,-8.34355"
       id="path26348" />
  </g>
</svg>
